# xmcd
#
# Track frame offsets: 
#        150
#        19947
#        36927
#        50312
#        71582
#        90185
#        107755
#        127287
#        148022
#        163217
#        180515
#        196320
#
# Disc length: 2822 seconds
#
# Revision: 1
# Processed by: cddbd v1.5.2PL0 Copyright (c) Steve Scherf et al.
# Submitted via: ExactAudioCopy v0.99pb5
#
DISCID=a70b040c
DTITLE=Richard Bennett - Themes From A Rainy Decade
DYEAR=2004
DGENRE=Blues
TTITLE0=Riviera
TTITLE1=Autumn's Affair
TTITLE2=Ashes
TTITLE3=The Proud And Profane
TTITLE4=Dinamico
TTITLE5=Aquanetta
TTITLE6=The Flaming Palomino
TTITLE7=Blue At Best
TTITLE8=Hawkins Street
TTITLE9=Underworld
TTITLE10=A Face No More
TTITLE11=Castaway 
EXTD=good album\n
EXTT0=
EXTT1=
EXTT2=
EXTT3=
EXTT4=
EXTT5=
EXTT6=
EXTT7=
EXTT8=
EXTT9=
EXTT10=
EXTT11=
PLAYORDER=
